PathFileType	4	(X/Y/Z)	/Users/niels/Desktop/University/Third Semester/Perception and Action/Exam/Gymnastics Motion Tracking/Code for Gym Tracking/Analyzed Data/Webcam_Backflip/id2000_1_baseline_Sports2D/id2000_1_baseline_Sports2D_px_person00.trc
DataRate	CameraRate	NumFrames	NumMarkers	Units	OrigDataRate	OrigDataStartFrame	OrigNumFrames
29.88372093023256	29.88372093023256	7	22	m	29.88372093023256	0	258
Frame#	Time	Hip			RHip			RKnee			RAnkle			RBigToe			RSmallToe			RHeel			LHip			LKnee			LAnkle			LBigToe			LSmallToe			LHeel			Neck			Head			Nose			RShoulder			RElbow			RWrist			LShoulder			LElbow			LWrist		
		X1	Y1	Z1	X2	Y2	Z2	X3	Y3	Z3	X4	Y4	Z4	X5	Y5	Z5	X6	Y6	Z6	X7	Y7	Z7	X8	Y8	Z8	X9	Y9	Z9	X10	Y10	Z10	X11	Y11	Z11	X12	Y12	Z12	X13	Y13	Z13	X14	Y14	Z14	X15	Y15	Z15	X16	Y16	Z16	X17	Y17	Z17	X18	Y18	Z18	X19	Y19	Z19	X20	Y20	Z20	X21	Y21	Z21	X22	Y22	Z22
0	0.0	0.9300201948349403	-0.38176612021798	0.0	1.0315993328292252	-0.4129925672633452	0.0	1.1566772426869454	-1.0018348977950884	0.0	1.150704274168151	-1.0677978302453828	0.0	1.2686978798668584	-1.2019845280871544	0.0	1.2052250973865954	-1.1163486330871872	0.0	0.9953364256905348	-1.087586425834527	0.0	0.8257977277064615	-0.42082078633776726	0.0	0.8779317365511868	-1.0018575692191105	0.0	0.8726769430913066	-1.0748531061142192	0.0	1.165101193305701	-1.0733990482217395	0.0	1.1850747083944353	-1.0737700197767601	0.0	1.0488325773692782	-1.0875863717281093	0.0	1.0524869763917502	-0.05867019089014489	0.0	1.3069240715077681	-0.07599682605348511	0.0	1.1302390703628546	0.12919122902624802	0.0	1.1550168804783434	0.13051279867666812	0.0	1.1671015249103642	-0.12122978408213149	0.0	1.3025778008425373	-0.4234380346414482	0.0	0.885734293730967	-0.024796977502564935	0.0	0.9040279869415021	-0.21763126810422778	0.0	0.9344776143206388	-0.4626965008637211	0.0
1	0.03346303501945525	0.9433341131204203	-0.3895461741537493	0.0	1.0439333975065077	-0.4227240023509474	0.0	1.159839666092053	-1.0016651378625547	0.0	1.1553995348635673	-1.0678579757994473	0.0	1.2686978830252797	-1.2019845330201182	0.0	1.2052250973229892	-1.1163486332076198	0.0	0.9953364256034248	-1.087586425903185	0.0	0.8404911580933986	-0.42983138589715086	0.0	0.8860933335976507	-1.0053077510806663	0.0	0.8777479018356834	-1.0757631119841813	0.0	1.1651011919176786	-1.073399048544102	0.0	1.1850747089797742	-1.0737700199529032	0.0	1.048832858794886	-1.0875863858897188	0.0	1.0633270970986406	-0.052916103259122674	0.0	1.306924072087672	-0.0759968262532488	0.0	1.1485373820614573	0.12928205422044722	0.0	1.1543152534128238	0.10645115043220081	0.0	1.1726705399211141	-0.13148633948357835	0.0	1.3107803535691491	-0.4295406428236598	0.0	0.8970029899384199	-0.023138755303506543	0.0	0.9159398119947796	-0.21865014876438094	0.0	0.934769080944849	-0.46269573237266765	0.0
2	0.0669260700389105	0.9572143677528089	-0.3981140048710647	0.0	1.0568964935370848	-0.43326916274934774	0.0	1.1636188445481939	-1.0032348749353375	0.0	1.160099539807206	-1.067888431497498	0.0	1.2686978860691847	-1.2019845214720715	0.0	1.2052250973867356	-1.1163486332411008	0.0	0.9953364255086358	-1.0875864259898065	0.0	0.8555682425387029	-0.43934285737350326	0.0	0.8950947927565182	-1.0088509201241134	0.0	0.8837746530930028	-1.076827580467417	0.0	1.1651011914125187	-1.0733990488723486	0.0	1.1850747091241187	-1.073770020103998	0.0	1.0488333187861332	-1.0875864462702654	0.0	1.0744908428422641	-0.04757908054264716	0.0	1.3069240736087888	-0.07599682668398196	0.0	1.166954951419267	0.1293680793237225	0.0	1.1551134831892371	0.08084844001787135	0.0	1.1784260806927773	-0.14265291676611783	0.0	1.31905490593383	-0.4375702248375409	0.0	0.9084324129023881	-0.021256133886510445	0.0	0.9276099384281389	-0.22066676414239958	0.0	0.9350603687413145	-0.4626948729108076	0.0
3	0.10038910505836576	0.971753447321067	-0.4078153729045913	0.0	1.0706235126798993	-0.44474574296746705	0.0	1.1685644346925788	-1.007066683229054	0.0	1.1648235618423657	-1.0678764915338737	0.0	1.2686978868460774	-1.2019844775474449	0.0	1.205225097717323	-1.11634863304206	0.0	0.9953364254572018	-1.0875864260633246	0.0	0.8711822275736959	-0.44945670380058456	0.0	0.9054884394158823	-1.0123755170272444	0.0	0.8913177001589908	-1.0778268133496636	0.0	1.1651011933762572	-1.073399049000296	0.0	1.185074708105819	-1.073770020095653	0.0	1.0488339106816587	-1.0875865791480892	0.0	1.08615475612969	-0.04319028145661499	0.0	1.3069240764157133	-0.07599682739269026	0.0	1.1855934468657323	0.12944803997042553	0.0	1.1585384056793173	0.055269868464864695	0.0	1.1844360223278694	-0.15522701284883444	0.0	1.327376633147603	-0.44892207321100497	0.0	0.9203010567095191	-0.0192668395480738	0.0	0.9386924161674746	-0.22415259822915176	0.0	0.9353587570149601	-0.46269435484814436	0.0
4	0.133852140077821	0.9865474200234776	-0.4181648820653225	0.0	1.084709716179581	-0.45618730572540833	0.0	1.1748524775572267	-1.0120674059444268	0.0	1.1695821201004133	-1.0678187596396935	0.0	1.2686978816233956	-1.2019843839021074	0.0	1.205225098478242	-1.1163486324098415	0.0	0.9953364255444133	-1.0875864260570465	0.0	0.8871519422708046	-0.45958050717117926	0.0	0.9173791435960496	-1.0153132467164712	0.0	0.9004992976107926	-1.078474867731018	0.0	1.1651012000372654	-1.0733990485593938	0.0	1.1850747049366421	-1.073770019706525	0.0	1.0488344352285575	-1.0875868007950393	0.0	1.0981567158099557	-0.04032865061422944	0.0	1.3069240805027693	-0.07599682831154958	0.0	1.204475313409784	0.12952242713095916	0.0	1.1650920040370882	0.033662184979440624	0.0	1.1906416885189892	-0.1691001831880699	0.0	1.3355327808227784	-0.4640124224012482	0.0	0.9329073175055177	-0.01757383737072011	0.0	0.9486346839982317	-0.22897504090355988	0.0	0.935675925041385	-0.4626950024385077	0.0
5	0.16731517509727625	1.0010449023763779	-0.42782197709771885	0.0	1.0985062867652429	-0.4657605941444984	0.0	1.1821190326059499	-1.016170672318553	0.0	1.1743682678229987	-1.0677367816701113	0.0	1.268697865280638	-1.2019842310195392	0.0	1.2052250997842648	-1.1163486311415016	0.0	0.9953364259104848	-1.087586425861568	0.0	0.9031265657646281	-0.46847919548798167	0.0	0.9306780913154111	-1.0164865820007765	0.0	0.9112437294439072	-1.0788803256654729	0.0	1.1651012137234138	-1.0733990470286585	0.0	1.1850746986285081	-1.0737700186493078	0.0	1.0488344537637388	-1.0875870926066968	0.0	1.1099302321916469	-0.03935919917656868	0.0	1.306924085019469	-0.07599682913889617	0.0	1.2234576037127647	0.1295958757652388	0.0	1.1746574974449293	0.018776728355923585	0.0	1.1969810965026197	-0.18362220590746503	0.0	1.3430378099417501	-0.48218021432906616	0.0	0.9463296574906158	-0.01659988147612321	0.0	0.9565921964795951	-0.23458256145048845	0.0	0.9360272580838419	-0.4626980505028271	0.0
6	0.20077821011673153	1.0148185995295387	-0.43532505369403035	0.0	1.111384285630374	-0.47178130219815045	0.0	1.1896434968946672	-1.0174906492427351	0.0	1.1791443294097794	-1.0676985547998927	0.0	1.2686978326819964	-1.2019840345657042	0.0	1.2052251015571251	-1.116348629161206	0.0	0.99533642671281	-1.087586425335528	0.0	0.9187444023300518	-0.4748687858073253	0.0	0.9453281082291832	-1.014487664730308	0.0	0.9233285998791148	-1.0794305311804748	0.0	1.1651012354820325	-1.0733990438583738	0.0	1.1850746888395507	-1.073770016664697	0.0	1.048833234384865	-1.0875873636523645	0.0	1.1206250947700152	-0.040135353001797554	0.0	1.3069240876247001	-0.07599682920377407	0.0	1.2421174718569614	0.1296801710138859	0.0	1.1864992080434744	0.010411391287420852	0.0	1.2034460206080362	-0.1978190783989663	0.0	1.3492023479191788	-0.5018987871596579	0.0	0.9601100988970838	-0.01658647416356552	0.0	0.9613769649217093	-0.2402642075748353	0.0	0.9364275145323676	-0.4627049213282728	0.0
